#!OML:ASF E:/inclinewalkrobotboard/Project1/Captureday1/Session1/subject1.ASF
:FULLY-SPECIFIED
:DEGREES
238
root 0 0 0 15.825932206018122 42.306569272604506 -0.5428810287631318
lowerback -10.823167233229302 -4.507436531498266 -4.4992963772233425
upperback -11.698900475200157 -5.600137977913157 8.919360829022564
thorax -5.4278083969324005 -2.109997677166482 12.163705918291917
lowerneck -3.002430259744431 -9.81959129202372 -8.454991268221079
upperneck 32.78524561271335 -12.310141598754184 0.140054023935392
head 11.90569900849041 -6.3759881713308255 -0.1546166844696366
rclavicle -4.532875651743349E-15 4.0585607058010016E-15
rhumerus 162.39365135609555 5.884969923976016 -194.39778156548317
rradius 16.811913954021335
rwrist 83.04840579375757
rhand -17.11894213211014 7.912118719128992
rfingers 7.125020000000012
rthumb 9.074779329945565 -21.98806500856489
lclavicle 1.8285356063352338E-15 -4.632235186192244E-15
lhumerus 85.20555395985353 32.722774531078514 16.507928170826645
lradius 49.98975681820996
lwrist -17.50453271542124
lhand -8.378253385553027 11.894422387338988
lfingers 7.125019999999987
lthumb 17.502134530133553 40.816780452258286
rfemur 157.32382348597636 -212.95296079804052 -184.99565872370792
rtibia 61.708924820929056
rfoot -55.78739049306506 -23.494347483617613
rtoes 60.97192300329917
lfemur -88.71584061935178 22.77663965662225 -52.18006949545452
ltibia 75.73454403665983
lfoot -15.12663663201425 32.73919851736136
ltoes 10.197044931495572
239
root 0 0 0 15.797051868966994 42.321637829598984 -0.5273977468546693
lowerback -10.809653348433056 -4.50846111145629 -4.502083064588757
upperback -11.692163990475775 -5.601170739320507 8.91741223282251
thorax -5.428672765216332 -2.1098951574992535 12.162920809006593
lowerneck -3.002132219179251 -9.819146899689418 -8.453040758056689
upperneck 32.785499562185976 -12.308490001353992 0.13583724416538656
head 11.905439620869652 -6.375581184761194 -0.15614372670283871
rclavicle -4.532959198332067E-15 4.081866189322364E-15
rhumerus 162.31706390137808 5.915651498067518 -194.45359781500707
rradius 16.7794727855681
rwrist 83.09141210988663
rhand -17.119371079733806 7.918428412119328
rfingers 7.125020000000012
rthumb 9.074303832986637 -21.98108100140507
lclavicle 1.864757148172303E-15 -4.5793278562762695E-15
lhumerus 85.19307484660897 32.73633963754287 16.504859333430232
lradius 49.92871960512757
lwrist -17.534699505162305
lhand -8.419913210787637 11.918611928515793
lfingers 7.125019999999986
lthumb 17.462085167453374 40.84769063875499
rfemur 157.25316499443142 -212.89139482340568 -184.94911102976766
rtibia 61.579051569156654
rfoot -56.07889016996458 -23.37995124787584
rtoes 60.958885996359044
lfemur -88.73070146073786 22.772363071443934 -52.23667056445228
ltibia 75.7190606413537
lfoot -14.923209441754677 32.738808697014136
ltoes 10.127550665775095
240
root 0 0 0 15.76848377771069 42.33568556381179 -0.5120138916625692
lowerback -10.796364490211545 -4.509487919862666 -4.5048820286594085
upperback -11.68552844434046 -5.602217254659669 8.915458015413677
thorax -5.429526103314719 -2.109802650900689 12.162143719595953
lowerneck -3.0018901080414473 -9.818677893104235 -8.451115748112745
upperneck 32.78568031691516 -12.306844864052131 0.1318020599629368
head 11.90516772895942 -6.375162475129868 -0.15760867513016352
rclavicle -4.532094312202676E-15 4.105362741075112E-15
rhumerus 162.24198054812783 5.9467037638648215 -194.50951634433346
rradius 16.74897467880764
rwrist 83.13035526327974
rhand -17.119833659169142 7.924921529627452
rfingers 7.125020000000012
rthumb 9.073808847581061 -21.973880735408112
lclavicle 1.9013939078755787E-15 -4.5272537732014E-15
lhumerus 85.18028274462512 32.74931189457783 16.502024703344766
lradius 49.869552605425795
lwrist -17.563638680411014
lhand -8.459515907155465 11.942367264638808
lfingers 7.125019999999986
lthumb 17.424011053372112 40.87785574900391
rfemur 157.18662585464875 -212.83302259498146 -184.90471610060422
rtibia 61.450689666692284
rfoot -56.36971879836474 -23.26468816817063
rtoes 60.9425588853381
lfemur -88.74544851993016 22.768247994440365 -52.2925901007428
ltibia 75.70325069158733
lfoot -14.721512991341358 32.738544945158544
ltoes 10.058754987721493
241
root 0 0 0 15.740195433275696 42.3488122973301 -0.4967149719706079
lowerback -10.783265297438831 -4.510508978190758 -4.507691277320133
upperback -11.678975301249467 -5.603264922278938 8.91348913206167
thorax -5.430368831116521 -2.1097130970102773 12.161362060732436
lowerneck -3.0017057135653786 -9.818184551980526 -8.449203037502947
upperneck 32.78580078493763 -12.305201950119354 0.12791490618655788
head 11.90488677396242 -6.374731864556524 -0.159023153813876
rclavicle -4.530369378326037E-15 4.12897054899259E-15
rhumerus 162.16815284595518 5.977877471856974 -194.56549626389437
rradius 16.719811802496835
rwrist 83.16642423532377
rhand -17.120309612224762 7.931504711696908
rfingers 7.125020000000012
rthumb 9.073309714841836 -21.966571206056635
lclavicle 1.9384577209985022E-15 -4.4757161087943145E-15
lhumerus 85.1674463438509 32.76195056175143 16.499333984869363
lradius 49.8114624165058
lwrist -17.59172041075499
lhand -8.497687798610535 11.965955868411259
lfingers 7.125019999999986
lthumb 17.387310514395946 40.907642865831605
rfemur 157.12304790496208 -212.7768049518466 -184.86190679789144
rtibia 61.32262115554339
rfoot -56.66143719910485 -23.14823426853095
rtoes 60.92379939894427
lfemur -88.76006978597673 22.76431039926573 -52.34759684502339
ltibia 75.68731188206324
lfoot -14.52199493924011 32.738306819998286
ltoes 9.99080588510074
